# xmcd CD database file
#
# Track frame offsets:
#	150
#	16555
#	35070
#	51427
#
# Disc length: 929 seconds
#
# Revision: 0
# Processed by: cddbd v1.5.1PL0 Copyright (c) Steve Scherf et al.
# Submitted via: CDex 1.51
#
DISCID=2a039f04
DTITLE=本田美奈子 - 風のうた
DYEAR=1999
DGENRE=JPop
TTITLE0=風のうた
TTITLE1=晴れた空お天気
TTITLE2=風のうた（カラオケ）
TTITLE3=晴れた空お天気（カラオケ）
EXTD=YEAR: 1999
EXTT0=
EXTT1=
EXTT2=
EXTT3=
PLAYORDER=
